<?xml version="1.0" standalone="no"?>
<!DOCTYPE svg PUBLIC "-//W3C//DTD SVG 20010904//EN"
 "http://www.w3.org/TR/2001/REC-SVG-20010904/DTD/svg10.dtd">
<svg version="1.0" xmlns="http://www.w3.org/2000/svg"
 width="192.000000pt" height="192.000000pt" viewMainContainer="0 0 192.000000 192.000000"
 preserveAspectRatio="xMidYMid meet">
<metadata>
Created by potrace 1.14, written by Peter Selinger 2001-2017
</metadata>
<g transform="translate(0.000000,192.000000) scale(0.100000,-0.100000)"
fill="#000000" stroke="none">
<path d="M685 1766 c-104 -45 -128 -205 -37 -243 113 -47 235 95 177 206 -14
27 -59 51 -94 51 -9 -1 -30 -7 -46 -14z m84 -32 c21 -15 23 -23 19 -77 -4 -52
-9 -64 -36 -88 -58 -52 -112 -29 -112 48 0 50 20 95 52 117 29 20 48 20 77 0z"/>
<path d="M1173 1761 c-24 -11 -51 -34 -63 -53 -24 -40 -27 -124 -5 -155 16
-23 72 -44 102 -38 72 15 72 15 83 56 6 22 18 43 26 46 31 12 11 23 -41 23
-30 0 -55 -4 -55 -10 0 -5 7 -10 15 -10 10 0 15 -10 15 -30 0 -41 -39 -61 -78
-39 -57 31 -50 137 10 182 23 17 34 19 65 11 27 -7 37 -14 35 -26 -3 -22 18
-34 29 -17 11 17 12 56 2 62 -5 3 -28 8 -53 11 -34 5 -56 1 -87 -13z"/>
<path d="M890 1764 c0 -4 7 -12 15 -18 21 -16 -16 -180 -48 -207 -22 -18 -22
-18 36 -19 59 0 68 5 42 24 -12 9 -13 18 -4 49 8 30 15 37 34 37 16 0 25 -6
25 -15 0 -34 27 -12 37 30 8 35 7 45 -2 45 -7 0 -15 -7 -19 -15 -3 -8 -17 -15
-32 -15 -24 0 -26 3 -20 31 3 17 6 35 6 40 0 5 20 9 45 9 38 0 45 -3 45 -20 0
-11 4 -20 9 -20 12 0 16 8 25 43 l6 27 -100 0 c-55 0 -100 -3 -100 -6z"/>
<path d="M805 1336 c-42 -18 -82 -68 -96 -118 -28 -105 30 -198 241 -388 l77
-70 135 133 c151 147 182 196 182 282 0 61 -22 105 -71 142 -31 24 -46 28
-103 28 -55 0 -73 -4 -107 -27 l-40 -27 -37 27 c-44 31 -133 40 -181 18z"/>
<path d="M1303 813 c-22 -16 -69 -50 -103 -78 -59 -47 -61 -50 -36 -53 16 -2
40 7 63 24 21 14 28 17 16 6 -40 -36 -19 -46 24 -12 14 11 31 20 37 20 6 -1
-1 -8 -16 -16 -32 -17 -37 -34 -10 -34 10 0 27 -7 38 -14 17 -13 14 -13 -21
-2 -22 7 -96 16 -164 20 -134 7 -167 17 -275 89 -56 37 -77 38 -294 20 -104
-9 -131 -15 -185 -41 -34 -17 -84 -50 -110 -74 l-48 -43 75 -112 75 -111 42
21 c61 30 137 25 328 -22 104 -26 188 -41 227 -41 l63 0 88 81 c48 45 89 85
91 90 2 4 -9 9 -25 12 -15 2 1 5 37 6 67 1 130 27 130 53 1 7 28 33 60 57 107
80 143 131 94 131 -11 0 -13 6 -9 20 5 15 1 21 -17 25 -29 7 -71 -8 -118 -41
-32 -23 -31 -22 5 10 l40 36 -30 0 c-17 0 -49 -12 -72 -27z m129 -23 c-13 -6
-38 -22 -57 -36 -19 -15 -35 -24 -35 -21 0 11 84 67 99 66 10 0 7 -4 -7 -9z
m-117 -30 c-3 -5 -16 -15 -28 -21 -19 -9 -19 -8 3 10 28 23 34 26 25 11z
m-272 -197 c-13 -2 -35 -2 -50 0 -16 2 -5 4 22 4 28 0 40 -2 28 -4z m-103 -10
c-73 -24 -102 -32 -96 -25 11 11 69 30 91 30 13 0 15 -1 5 -5z m193 0 c-7 -2
-21 -2 -30 0 -10 3 -4 5 12 5 17 0 24 -2 18 -5z"/>
</g>
</svg>
